<svg width="20" height="19" viewBox="0 0 20 19" fill="none" xmlns="http://www.w3.org/2000/svg">
<path fill-rule="evenodd" clip-rule="evenodd" d="M10 3.36466C9.67033 3.36466 9.38775 3.07009 9.38775 2.72642V0.836241C9.38775 0.492572 9.67033 0.197998 10 0.197998C10.3297 0.197998 10.6122 0.492572 10.6122 0.836241V2.72642C10.6122 3.07009 10.3297 3.36466 10 3.36466ZM6.40172 5.95216C7.31472 5.10216 8.60365 4.55216 10 4.55216C11.3963 4.55216 12.6853 5.07716 13.5983 5.95216C14.5113 6.80216 15.102 8.00216 15.102 9.30216C15.102 10.6022 14.5113 11.8022 13.5983 12.6522C12.6853 13.5022 11.3963 14.0522 10 14.0522C8.60365 14.0522 7.31472 13.5272 6.40172 12.6522C5.48872 11.8022 4.89796 10.6022 4.89796 9.30216C4.89796 8.00216 5.46187 6.80216 6.40172 5.95216ZM3.0593 3.71009L4.54178 5.14778C4.83827 5.40918 5.26954 5.40918 5.51213 5.14778C5.78167 4.88638 5.78167 4.46814 5.51213 4.20674L4.02965 2.76905C3.76011 2.50765 3.32884 2.50765 3.0593 2.76905C2.78976 3.03045 2.78976 3.44869 3.0593 3.71009ZM0.658124 8.90633H2.60718C2.96156 8.90633 3.26531 9.18037 3.26531 9.50008C3.26531 9.81979 2.96156 10.0938 2.60718 10.0938H0.658124C0.303749 10.0938 0 9.81979 0 9.50008C0 9.18037 0.303749 8.90633 0.658124 8.90633ZM5.51213 13.8524C5.24259 13.591 4.81132 13.591 4.54178 13.8524L3.0593 15.2901C2.78976 15.5515 2.78976 15.9697 3.0593 16.2311C3.32884 16.4925 3.76011 16.4925 4.02965 16.2311L5.51213 14.7934C5.78167 14.532 5.78167 14.1138 5.51213 13.8524ZM10 15.6355C10.3297 15.6355 10.6122 15.9301 10.6122 16.2737V18.1639C10.6122 18.5076 10.3297 18.8022 10 18.8022C9.67033 18.8022 9.38775 18.5076 9.38775 18.1639V16.2737C9.38775 15.9301 9.67033 15.6355 10 15.6355ZM16.9407 15.2901L15.4582 13.8524C15.1617 13.591 14.7305 13.591 14.4879 13.8524C14.2183 14.1138 14.2183 14.532 14.4879 14.7934L15.9704 16.2311C16.2399 16.4925 16.6712 16.4925 16.9407 16.2311C17.2102 15.9697 17.2102 15.5515 16.9407 15.2901ZM16.7347 9.50008C16.7347 9.18037 17.0384 8.90633 17.3928 8.90633H19.3419C19.6963 8.90633 20 9.18037 20 9.50008C20 9.81979 19.6963 10.0938 19.3419 10.0938H17.3928C17.0384 10.0938 16.7347 9.81979 16.7347 9.50008ZM14.4879 5.14778C14.7574 5.40918 15.1887 5.40918 15.4582 5.14778L16.9407 3.71009C17.2102 3.44869 17.2102 3.03045 16.9407 2.76905C16.6712 2.50765 16.2399 2.50765 15.9704 2.76905L14.4879 4.20674C14.2183 4.46814 14.2183 4.88638 14.4879 5.14778Z" fill="white"/>
</svg>
