<svg width="12" height="12" viewBox="0 0 12 12" fill="none" xmlns="http://www.w3.org/2000/svg">
<path fill-rule="evenodd" clip-rule="evenodd" d="M6 0C4.35789 0 2.84211 0.694737 1.76842 1.76842C0.663158 2.84211 0 4.35789 0 6C0 7.64211 0.694737 9.15789 1.76842 10.2316C2.84211 11.3368 4.35789 12 6 12C7.64211 12 9.1579 11.3053 10.2316 10.2316C11.3053 9.15789 12 7.64211 12 6C12 5.8147 11.9912 5.63101 11.9739 5.44938C11.8669 6.36895 11.4377 7.20438 10.8211 7.82105C10.1053 8.53684 9.09474 9 8 9C6.90526 9 5.89474 8.55789 5.17895 7.82105C4.46316 7.10526 4 6.09474 4 5C4 3.90526 4.44211 2.89474 5.17895 2.17895C5.89474 1.46316 6.90526 1 8 1C8.7164 1 9.39674 1.18933 9.98201 1.52669C8.92922 0.567176 7.51863 0 6 0Z" fill="white"/>
</svg>
